Coordinates
nRows=15
nColumns=24

# SIMM Motion File Header:
name Coordinates
datacolumns 24
datarows 15
otherdata 1
range 1.33333000000000010000 1.34733000000000010000
endheader
time	pelvis_tx	pelvis_ty	pelvis_tz	pelvis_tilt	pelvis_list	pelvis_rotation	hip_flexion_r	hip_adduction_r	hip_rotation_r	knee_angle_r	ankle_angle_r	subtalar_angle_r	mtp_angle_r	hip_flexion_l	hip_adduction_l	hip_rotation_l	knee_angle_l	ankle_angle_l	subtalar_angle_l	mtp_angle_l	lumbar_extension	lumbar_bending	lumbar_rotation
      1.33333000000000010000	     -0.24398111654974078000	      0.97348993953753904000	      0.26921629810871267000	      5.11975030541892820000	      0.59761183067411039000	     12.94773748923177900000	     -1.47878662518505520000	      1.63032487927986550000	      2.37507918317435470000	    -10.97907312724368400000	      7.26315503343951010000	      0.00000000000008328279	     -0.00000000000026653120	     10.94100554206575500000	     -1.36490882542744880000	      6.53594864264275350000	    -37.31520232585818800000	     12.21056925510411300000	      0.00000000000018013023	     -0.00000000000005496270	    -11.47335515004281000000	      5.38212240906506880000	     -3.05600562136100160000
      1.33433000000000000000	     -0.24349564600358611000	      0.97345741588211632000	      0.26919054143666366000	      5.12353394876106800000	      0.61304017901695762000	     12.94827380921428500000	     -1.52425513419657220000	      1.62016750310732930000	      2.39295860080322600000	    -10.97156404394848500000	      7.29469794719132910000	      0.00000000000008333274	     -0.00000000000026702460	     10.98940837646877000000	     -1.32838251619079250000	      6.54086087168949340000	    -37.21796082634978800000	     12.26079227981167300000	      0.00000000000018048006	     -0.00000000000005644814	    -11.48020829518076400000	      5.36896730407588140000	     -3.04466532703533590000
      1.33533000000000010000	     -0.24300986485947176000	      0.97342464964410114000	      0.26916500406905347000	      5.12747565174280510000	      0.62838432527606158000	     12.94853870672782600000	     -1.56984928916105580000	      1.61012325656909240000	      2.41116634365899780000	    -10.96412238035421900000	      7.32675071447385040000	      0.00000000000008336427	     -0.00000000000026750769	     11.03713386462668600000	     -1.29203386603566010000	      6.54616219389843850000	    -37.11972608869191200000	     12.31006156758374600000	      0.00000000000018082709	     -0.00000000000005791791	    -11.48718478776764900000	      5.35580310574510770000	     -3.03291107059643530000
      1.33633000000000000000	     -0.24252377311739795000	      0.97339164082349361000	      0.26913968600588223000	      5.13157541436413830000	      0.64364426945141462000	     12.94853218177240000000	     -1.61556909007848690000	      1.60019213966516080000	      2.42970241174166590000	    -10.95674813646089200000	      7.35931333528706590000	      0.00000000000008337739	     -0.00000000000026798046	     11.08418200653947500000	     -1.25586287496206950000	      6.55185260926958970000	    -37.02049811288458200000	     12.35837711842030400000	      0.00000000000018117133	     -0.00000000000005937201	    -11.49428462780346500000	      5.34262981407275190000	     -3.02074285204430120000
      1.33733000000000010000	     -0.24203768137532400000	      0.97335863200288597000	      0.26911436794271093000	      5.13567517698547250000	      0.65890421362677110000	     12.94852565681697400000	     -1.66128889099592820000	      1.59026102276122680000	      2.44823847982433800000	    -10.94937389256756400000	      7.39187595610028850000	      0.00000000000008339050	     -0.00000000000026845323	     11.13123014845227500000	     -1.21969188388847090000	      6.55754302464074270000	    -36.92127013707723600000	     12.40669266925687200000	      0.00000000000018151557	     -0.00000000000006082612	    -11.50138446783928400000	      5.32945652240039360000	     -3.00857463349216440000
      1.33833000000000000000	     -0.24155102865134137000	      0.97332510113105719000	      0.26908949838663393000	      5.14002540435444910000	      0.67393864675584214000	     12.94803701211240800000	     -1.70718017513282220000	      1.58060685224370110000	      2.46736181715952570000	    -10.94206302749855600000	      7.42445438363070750000	      0.00000000000008340515	     -0.00000000000026894226	     11.17708253052738100000	     -1.18391977923222000000	      6.56404891083660490000	    -36.82021905182959600000	     12.45323910268244600000	      0.00000000000018185002	     -0.00000000000006223236	    -11.50865870057358400000	      5.31631660218047750000	     -2.99564977358264930000
      1.33933000000000010000	     -0.24106437592735866000	      0.97329157025922830000	      0.26906462883055698000	      5.14437563172342840000	      0.68897307988491574000	     12.94754836740784000000	     -1.75307145926972700000	      1.57095268172617410000	      2.48648515449472020000	    -10.93475216242954500000	      7.45703281116113370000	      0.00000000000008341981	     -0.00000000000026943128	     11.22293491260249400000	     -1.14814767457596290000	      6.57055479703247160000	    -36.71916796658193500000	     12.49978553610802300000	      0.00000000000018218447	     -0.00000000000006363861	    -11.51593293330788700000	      5.30317668196055880000	     -2.98272491367312800000
      1.34033000000000000000	     -0.24057731823219303000	      0.97325759738572171000	      0.26904015519341756000	      5.14887232276960740000	      0.70380220781153058000	     12.94669029943692200000	     -1.79902880664089240000	      1.56153817547412710000	      2.50605924337240580000	    -10.92746918493540100000	      7.48906732653858230000	      0.00000000000008343345	     -0.00000000000026989424	     11.26795386291903600000	     -1.11271313073784370000	      6.57768643733725790000	    -36.61679183181647800000	     12.54503824097061400000	      0.00000000000018250423	     -0.00000000000006498881	    -11.52329471578384600000	      5.29007954746628520000	     -2.96922794526459690000
      1.34133000000000010000	     -0.24009012554663295000	      0.97322347717832258000	      0.26901581352925730000	      5.15341783504152050000	      0.71856290067066331000	     12.94570909037721900000	     -1.84500817509015840000	      1.55220355731057080000	      2.52578358276426140000	    -10.92019550329954000000	      7.52092053786504700000	      0.00000000000008344675	     -0.00000000000027034850	     11.31269500264939900000	     -1.07739110717242740000	      6.58502666234501980000	    -36.51397401387839600000	     12.58985970297888800000	      0.00000000000018281910	     -0.00000000000006632033	    -11.53068568150702700000	      5.27699667488055720000	     -2.95554027402305720000
      1.34233000000000000000	     -0.23960279832143191000	      0.97318919918457958000	      0.26899164638764411000	      5.15800922389421320000	      0.73325376290899769000	     12.94458470020590100000	     -1.89099573514189490000	      1.54295110150512320000	      2.54568432056703300000	    -10.91294106491889500000	      7.55242741192218590000	      0.00000000000008345760	     -0.00000000000027081107	     11.35714970540004200000	     -1.04219015513725900000	      6.59257593849963190000	    -36.41069878957935700000	     12.63421642155173400000	      0.00000000000018312530	     -0.00000000000006762570	    -11.53810786934196900000	      5.26391857787190530000	     -2.94164453788971780000
      1.34333000000000010000	     -0.23911506747730751000	      0.97315444783180505000	      0.26896800281367189000	      5.16273824248924470000	      0.74773513328494834000	     12.94303076669972800000	     -1.93700787000108380000	      1.53394513277399480000	      2.56611425360257340000	    -10.90574435630388100000	      7.58289527417136800000	      0.00000000000008346108	     -0.00000000000027129853	     11.40074509721156200000	     -1.00735241769280730000	      6.60075236809480700000	    -36.30605134619732200000	     12.67717890981832500000	      0.00000000000018340549	     -0.00000000000006885262	    -11.54562372351220900000	      5.25085480759446900000	     -2.92712460708096160000
      1.34433000000000000000	     -0.23862733663318320000	      0.97311969647903063000	      0.26894435923969967000	      5.16746726108427620000	      0.76221650366089577000	     12.94147683319355500000	     -1.98302000486026240000	      1.52493916404286840000	      2.58654418663810940000	    -10.89854764768887000000	      7.61336313642054390000	      0.00000000000008346456	     -0.00000000000027178599	     11.44434048902307100000	     -0.97251468024836318000	      6.60892879768998130000	    -36.20140390281531500000	     12.72014139808490500000	      0.00000000000018368568	     -0.00000000000007007955	    -11.55313957768244600000	      5.23779103731703530000	     -2.91260467627220800000
      1.34533000000000010000	     -0.23813923732138628000	      0.97308444825207541000	      0.26892133781477401000	      5.17230992561478240000	      0.77650748018276439000	     12.93946527257511500000	     -2.02899677205673300000	      1.51616182937366070000	      2.60755368126923640000	    -10.89147822166708200000	      7.64266067631516590000	      0.00000000000008350228	     -0.00000000000027230387	     11.48710720332404600000	     -0.93803134400445820000	      6.61770653463613720000	    -36.09541809809908800000	     12.76164513011913800000	      0.00000000000018396123	     -0.00000000000007127768	    -11.56074602817406400000	      5.22469653774924850000	     -2.89745849963584010000
      1.34633000000000000000	     -0.23765101518703197000	      0.97304903440039348000	      0.26889852377286388000	      5.17719047212377870000	      0.79073499208660147000	     12.93730116958591500000	     -2.07496175003228700000	      1.50746070605842950000	      2.62875636309889020000	    -10.88445122317637200000	      7.67156810875825550000	      0.00000000000008355142	     -0.00000000000027283190	     11.52959769178815800000	     -0.90366614149407820000	      6.62668470736595430000	    -35.98898617293815500000	     12.80266261007590200000	      0.00000000000018423524	     -0.00000000000007246622	    -11.56838267743947500000	      5.21159179508468200000	     -2.88210357439026810000
      1.34733000000000010000	     -0.23716268854665329000	      0.97301344096010967000	      0.26887593029805235000	      5.18209153714155860000	      0.80490423632849917000	     12.93498896089057700000	     -2.12088631775127470000	      1.49882935933525040000	      2.65015295507950550000	    -10.87749497720248100000	      7.70019277923287330000	      0.00000000000008359128	     -0.00000000000027335491	     11.57184800161344300000	     -0.86941130698470170000	      6.63584990862596060000	    -35.88214774176933700000	     12.84320627236357900000	      0.00000000000018450909	     -0.00000000000007365250	    -11.57603637781954300000	      5.19846690553319490000	     -2.86655486889919240000
